PathFileType	4	(X/Y/Z)	C:/Users/beibeiliu/ov580/test_trc/User3\sequence.15_training_dense_right.trc
DataRate	CameraRate	NumFrames	NumMarkers	Units	OrigDataRate	OrigDataStartFrame	OrigNumFrames
120	120	24	19	mm	120	147	234
Frame#	Time	ThumbCMC			ThumbMCP			ThumbIP			ThumbTip			IndexMCP			IndexPIP			IndexTip			MiddleMCP			MiddlePIP			MiddleTip			RingMCP			RingPIP			RingTip			PinkyMCP			PinkyPIP			PinkyTip			BackHand1			BackHand2			BackHand3	
		X0	Y0	Z0	X1	Y1	Z1	X2	Y2	Z2	X3	Y3	Z3	X4	Y4	Z4	X5	Y5	Z5	X6	Y6	Z6	X7	Y7	Z7	X8	Y8	Z8	X9	Y9	Z9	X10	Y10	Z10	X11	Y11	Z11	X12	Y12	Z12	X13	Y13	Z13	X14	Y14	Z14	X15	Y15	Z15	X16	Y16	Z16	X17	Y17	Z17	X18	Y18	Z18	
146	1.21667	137.598	-26.7974	15.1663	124.848	-37.1142	-9.45066	114.251	-42.197	-39.8463	113.44	-52.0444	-59.2138	147.796	-13.8768	-58.2531	135.126	-30.2768	-76.2982	126.519	-63.7543	-78.3261	179.44	-10.921	-56.9071	177.027	-11.036	-88.0874	171.281	-18.9132	-121.294	198.639	-24.8362	-48.4092	203.837	-22.2567	-76.0556	207.475	-23.6619	-101.034	214.574	-45.5897	-37.3055	221.874	-48.1743	-57.0278	230.65	-50.3113	-77.2131	198.044	-20.1986	-0.873842	200.13	-27.2867	29.2481	171.149	-9.60931	16.0523	
147	1.225	134.66	-28.997	15.2951	122.638	-41.9326	-9.5101	113.553	-49.5345	-37.105	114.506	-60.2842	-58.4916	151.09	-23.8533	-57.1578	136.675	-43.9862	-77.7774	125.274	-74.3637	-74.5872	181.366	-20.019	-61.462	174.948	-22.0676	-92.4896	166.386	-32.5919	-122.174	196.669	-30.9908	-49.9898	203.37	-31.2211	-74.756	206.46	-35.0539	-102.104	209.345	-51.0785	-33.6575	220.783	-57.5999	-52.5543	233.004	-60.9046	-70.7539	196.862	-25.1179	0.659866	197.295	-27.0551	26.9737	171.003	-12.6719	14.2208	
148	1.23333	134.863	-31.0856	16.0913	118.586	-45.2777	-10.5129	109.373	-55.6008	-38.2997	109.942	-69.3761	-56.0703	147.266	-32.0736	-59.6881	134.547	-57.7648	-75.9337	121.116	-84.5181	-69.044	177.224	-28.1274	-62.3184	175.304	-33.6741	-88.6599	167.296	-49.6127	-120.194	195.029	-37.9487	-51.9916	202.781	-41.5482	-74.4125	202.474	-48.0088	-101.576	211.701	-57.8938	-34.4351	222.712	-67.3753	-51.7194	230.813	-73.4865	-72.3907	196.439	-30.7398	-2.04213	196.439	-27.342	28.5889	170.993	-13.2074	11.95	
149	1.24167	130.705	-31.0869	17.2262	117.926	-47.2311	-4.44882	105.18	-61.6778	-33.8394	110.737	-78.2693	-50.7577	148.519	-40.8148	-57.4582	134.525	-63.9269	-72.0169	123.089	-91.0726	-65.2225	174.588	-37.3292	-60.0116	170.257	-46.8124	-88.4901	163.971	-65.5107	-117.223	192.222	-47.0571	-50.3945	198.252	-53.1629	-72.7821	201.808	-64.1621	-102.657	208.816	-65.8045	-32.9452	218.981	-75.5218	-48.9113	227.915	-85.4325	-68.0499	194.359	-32.2287	-1.18058	197.78	-28.6353	27.6436	165.934	-14.3087	7.7621	
150	1.25	132.029	-29.9888	18.3247	115.917	-48.8982	-5.61575	104.527	-64.589	-26.6596	103.349	-82.9347	-45.8839	142.579	-47.2634	-55.1202	125.893	-70.7738	-67.9853	112.624	-99.9713	-52.4975	172.801	-49.5789	-61.5111	166.732	-63.1398	-88.3683	156.94	-83.8	-112.373	190.723	-58.3848	-47.1739	195.179	-67.8682	-74.7846	194.325	-79.4578	-95.4677	203.228	-73.295	-28.1341	212.889	-85.2725	-41.689	223.036	-99.9847	-60.4756	193.38	-36.3434	-4.25882	196.037	-29.4213	24.1736	167.705	-17.6191	5.12642	
151	1.25833	131.651	-28.5179	16.541	111.575	-47.4614	0.226478	102.583	-66.3363	-22.5797	99.1539	-86.3231	-35.5081	137.616	-53.7361	-51.1983	122.726	-79.5658	-60.5555	107.396	-105.355	-42.3151	168.618	-60.1429	-56.2584	159.078	-75.0229	-81.736	144.361	-95.6638	-102.08	188.893	-72.1464	-48.0417	189.055	-84.0996	-69.9263	185.813	-99.6403	-87.2431	201.933	-84.3313	-21.6732	206.56	-99.2338	-39.0474	211.439	-117.828	-54.3907	191.619	-42.3503	-3.02204	199.836	-33.6271	27.7758	168.047	-20.5188	4.62814	
152	1.26667	135.674	-28.3048	19.8683	111.097	-44.1457	5.81348	91.7283	-63.9186	-16.3493	87.8694	-83.2405	-27.0499	134.722	-61.286	-46.9531	111.91	-84.2195	-52.4521	97.9866	-104.192	-32.6849	160.592	-72.0705	-57.3286	146.228	-86.9189	-76.2955	133.011	-112.063	-91.642	179.446	-81.0742	-40.7439	175.535	-93.7977	-61.1579	169.278	-113.639	-79.7044	190.651	-92.3208	-19.0977	195.931	-113.866	-33.7698	195.975	-128.528	-45.9559	194.283	-50.8126	-1.70992	195.643	-35.8226	26.3138	168.007	-22.5228	5.49315	
153	1.275	135.908	-22.9882	22.2663	108.696	-39.3655	8.05954	87.1991	-57.7751	-10.1622	77.1359	-77.518	-17.0845	122.916	-62.3376	-44.0024	100.753	-84.2228	-44.9678	86.6961	-100.874	-23.8198	150.711	-74.3434	-49.202	134.103	-97.2219	-69.4887	111.6	-117.96	-82.0343	167.557	-88.696	-40.5315	161.431	-106.584	-56.742	152.599	-127.358	-70.9246	180.75	-100.246	-16.0844	179.155	-121.054	-28.0765	174.981	-139.003	-41.8938	188.261	-57.0518	-2.86013	197.561	-42.4723	19.9224	169.702	-26.341	4.50694	
154	1.28333	137.801	-21.6206	21.8542	107.754	-34.0559	9.91843	84.495	-50.234	-2.54483	70.5597	-69.755	-10.6369	116.509	-66.2392	-40.1802	89.0583	-81.0277	-37.5459	75.1626	-93.1511	-14.091	141.205	-81.8243	-46.0227	123.203	-98.6907	-60.6551	95.4503	-119.36	-71.1095	157.57	-93.9399	-32.304	148.81	-113.471	-47.1689	131.772	-130.115	-61.9211	168.772	-106.34	-8.65327	163.698	-124.592	-18.5111	159.549	-143.848	-29.4765	180.926	-60.8474	0.417593	196.331	-49.5523	22.7442	168.773	-28.0807	0.615854	
155	1.29167	140.941	-18.9974	21.7292	107.858	-26.4711	11.1473	80.6141	-38.6425	-0.541142	67.9478	-58.4534	-4.6304	111.726	-64.5451	-36.3626	82.0927	-76.6255	-30.6314	64.6049	-78.8684	-11.6343	129.12	-82.7893	-43.4935	108.28	-101.782	-55.2746	78.7252	-115.945	-61.8012	145.491	-99.0968	-24.6056	130.836	-117.024	-41.5987	109.66	-133.075	-52.3418	155.312	-108.704	-1.97915	144.701	-129.885	-11.5335	135.385	-147.276	-21.9495	176.152	-71.27	0.0948055	191.84	-56.6619	23.8989	169.175	-34.3043	2.64436	
156	1.3	142.119	-14.9242	17.9586	111.8	-18.713	13.2447	83.2399	-27.0193	3.34206	63.9344	-40.8364	-0.991	106.124	-58.9495	-34.1869	73.87	-65.8104	-28.8016	57.2992	-63.5987	-8.03089	120.206	-84.644	-36.6788	97.7958	-91.8326	-49.1175	64.4358	-108.402	-53.4397	130.112	-97.9438	-24.7215	111.451	-113.085	-37.0701	89.5024	-125.884	-44.5924	139.744	-109.313	4.61414	126.423	-123.95	-4.85537	114.193	-145.29	-12.8436	166.832	-74.5176	3.19482	186.177	-60.215	24.9936	170.019	-39.6265	0.038068	
157	1.30833	147.133	-10.7506	17.2722	111.676	-13.2138	6.93757	82.8798	-17.1467	-1.38932	63.4623	-31.305	-2.07086	105.686	-53.9419	-31.2508	71.5816	-50.6494	-30.4557	51.6912	-43.7054	-6.58318	109.67	-79.4925	-35.6452	83.6756	-88.425	-44.8153	52.3562	-94.6309	-50.0244	119.591	-96.7922	-15.4826	101.003	-106.339	-30.2627	75.9324	-118.661	-37.143	125.933	-105.707	10.1718	110.565	-117.672	1.69861	96.6346	-134.133	-3.31596	163.01	-75.1127	9.51146	183.382	-64.5282	25.8117	167.509	-40.4367	-0.219105	
158	1.31667	147.957	-12.941	12.1235	118.434	-4.50469	6.48533	87.6807	-8.0983	-1.91677	62.9378	-16.9491	-4.22227	101.01	-49.5863	-32.6509	72.6776	-39.7373	-32.6956	51.4913	-29.4595	-10.167	105.577	-75.7503	-30.9911	79.1936	-78.9038	-43.535	46.4951	-80.2704	-49.0765	110.447	-89.8639	-14.4947	90.326	-97.3935	-27.6152	61.5806	-103.237	-39.5094	114.158	-99.9422	13.6036	95.2538	-109.91	3.43817	79.6708	-124.711	1.89097	151.63	-78.5771	8.94533	173.545	-68.1639	27.4516	165.624	-44.1022	-0.703831	
159	1.325	155.148	-10.3621	11.7709	122.698	-4.57875	3.58412	95.9583	-0.00725874	-4.3476	67.5981	-8.13053	-7.38608	100.585	-41.4235	-35.0109	74.3609	-31.8968	-34.2945	54.8792	-12.6744	-15.2186	103.261	-68.9435	-31.3253	71.145	-71.1013	-45.3968	45.4613	-67.1337	-52.0974	105.148	-81.5551	-14.8874	82.3886	-90.8947	-29.9408	58.036	-95.0334	-38.3084	106.984	-89.4283	12.4744	86.6585	-102.958	5.86442	68.0942	-111.105	-2.77009	148.182	-77.4491	13.9228	167.245	-73.829	31.089	163.573	-51.6795	0.444793	
160	1.33333	154.742	-13.3851	10.0448	128.104	4.7121	-0.233554	100.321	10.6023	-11.2231	72.7175	2.72345	-13.7793	104.568	-35.4919	-38.3885	77.2955	-23.7905	-37.9388	57.5761	-3.49105	-18.2128	100.874	-62.45	-37.9042	74.4915	-60.6032	-51.999	47.6031	-57.269	-58.2994	101.483	-78.3147	-20.4645	81.9216	-82.9461	-34.2282	55.4913	-86.7073	-45.0615	100.916	-86.5102	10.2534	84.6453	-92.438	2.57859	65.3528	-103.496	-2.44732	147.289	-73.7041	11.6452	164.202	-73.6439	29.7683	166.295	-46.5875	-0.102952	
161	1.34167	161.331	-9.16471	10.2518	132.078	6.34025	-3.96033	103.677	11.838	-17.7344	82.5874	9.51385	-19.0032	110.964	-33.0011	-42.3703	81.8249	-19.8235	-43.4138	64.1018	2.09586	-25.2053	105.623	-58.5687	-42.4718	81.8435	-59.9295	-53.0797	54.5054	-50.2023	-68.9555	104.112	-74.4496	-22.001	84.1951	-80.1643	-38.5518	63.2718	-82.3847	-50.1736	100.038	-81.4436	5.24156	82.5619	-90.3232	0.998537	64.2089	-100.202	-6.91299	146.256	-70.6555	6.0127	168.577	-70.2537	30.655	170.334	-46.3586	-0.47861	
162	1.35	164.5	-9.6872	7.04921	139.354	8.08233	-7.87659	114.348	13.4723	-21.4474	90.7415	11.9302	-26.2149	118.333	-32.4889	-44.5311	89.6899	-18.5294	-50.1872	74.5774	4.24042	-38.7967	111.069	-58.5419	-45.3184	90.1896	-55.826	-62.6126	59.8088	-47.6103	-79.0379	108.662	-70.9157	-28.2509	91.8372	-76.3813	-44.6984	66.5951	-77.9814	-60.7328	103.575	-80.1826	4.99761	84.9437	-86.5791	-6.6358	65.2471	-95.5509	-16.0765	145.12	-72.4399	6.27739	166.79	-71.9961	29.9581	170.455	-44.4826	-3.28258	
163	1.35833	171.776	-7.09163	7.26551	144.638	5.59669	-12.2705	120.235	11.9074	-27.752	98.6404	13.2489	-35.2771	124.452	-28.8302	-53.542	99.6791	-16.0833	-57.8989	79.7088	5.73189	-43.4077	122.342	-57.101	-49.9883	98.4571	-57.9082	-67.2494	75.4828	-47.3251	-85.8501	114.471	-72.3145	-31.2777	96.505	-78.2991	-48.4057	76.9971	-79.745	-64.0932	106.672	-77.9904	-2.75922	89.9705	-84.469	-13.7446	71.105	-95.7411	-24.9967	152.496	-70.2336	4.31191	168.546	-71.1551	27.2812	177.087	-45.0831	0.892608	
164	1.36667	175.199	-10.3878	6.2165	152.485	5.14442	-14.6933	129.05	10.9191	-35.6584	109.953	11.2376	-41.8066	135.491	-35.4139	-55.2189	110.168	-14.9969	-66.5477	93.8027	3.56636	-56.3271	130.566	-58.7796	-55.208	111.076	-57.051	-75.495	85.2752	-50.9215	-95.6626	122.159	-72.6523	-36.0015	105.563	-78.0335	-54.0496	86.1529	-80.5587	-73.9482	113.625	-78.5237	-6.15665	95.3573	-87.2761	-14.9227	77.1198	-96.6721	-31.6609	156.372	-72.7838	4.52488	172.31	-70.2623	32.2642	182.414	-46.279	1.67199	
165	1.375	181.797	-11.8454	5.67685	159.465	3.15158	-19.3031	137.894	9.1022	-44.5119	117.095	5.44564	-52.6612	149.316	-36.5888	-59.745	122.506	-19.9889	-74.549	106.218	0.433485	-67.476	140.135	-64.9373	-53.908	121.37	-62.7692	-81.2182	100.603	-57.3413	-103.245	130.013	-76.2984	-37.9325	119.64	-78.7045	-59.2053	98.0914	-84.2173	-79.6754	119.547	-79.0393	-15.8554	105.473	-86.5724	-24.2594	85.7243	-98.5791	-37.2643	164.16	-71.2969	5.19527	172.562	-70.225	30.2308	187.41	-48.2585	0.733914	
166	1.38333	184.929	-13.9282	-0.503811	165.627	-2.00996	-24.5763	149.724	5.8428	-46.4286	129.962	0.731188	-58.9914	157.969	-44.5193	-61.9736	134.625	-28.0079	-79.6969	117.842	-5.42334	-76.5518	153.912	-67.8525	-61.4708	139.719	-66.664	-86.9744	118.997	-61.0961	-113.531	141.724	-78.6036	-41.297	127.544	-86.1498	-63.7959	113.682	-88.718	-85.3821	129.824	-78.9149	-16.1115	112.197	-90.8411	-28.1448	99.1803	-97.6811	-44.8905	167.713	-71.6088	0.809454	175.64	-69.0138	28.6939	194.658	-50.6476	0.615497	
167	1.39167	192.303	-11.7907	-1.17182	173.744	-4.48407	-26.9791	156.504	-2.48727	-56.8535	138.001	-6.83167	-65.7673	173.809	-47.9266	-67.0377	152.834	-37.0313	-85.4285	127.472	-14.3489	-82.4801	168.845	-73.0093	-61.4425	155.547	-75.6522	-85.7197	135.321	-74.3448	-115.284	153.604	-83.5857	-42.5918	144.052	-91.753	-68.5379	128.987	-96.7023	-88.3216	137.47	-85.9511	-17.7954	125.926	-95.4934	-33.2171	110.029	-105.882	-48.4719	174.383	-74.1687	1.71045	181.945	-69.7691	31.8175	200.874	-53.093	2.22766	
168	1.4	197.32	-10.891	-1.98793	178.22	-10.6412	-30.743	164.532	-10.7297	-55.7375	147.308	-18.9954	-70.7689	187.357	-55.1815	-63.8602	161.923	-47.9119	-86.9089	141.299	-28.2907	-88.2827	183.162	-80.2612	-57.5316	172.575	-85.9711	-84.3501	153.171	-87.0552	-111.459	166.866	-92.2845	-40.8961	158.692	-103.87	-67.7404	147.915	-107.364	-91.5458	148.485	-96.5099	-18.798	139.925	-106.197	-35.5371	127.07	-119.603	-47.7644	185.214	-76.923	5.85658	190.445	-68.5659	29.9473	207.352	-51.1757	6.60432	
169	1.40833	201.7	-14.4662	-4.55517	185.601	-13.2978	-35.9766	172.213	-17.7372	-60.4978	154.031	-28.6635	-79.5695	195.322	-66.8044	-65.5135	178.159	-60.0986	-86.7322	154.662	-42.9113	-91.6698	199.1	-88.5587	-54.4806	189.524	-98.3455	-85.0115	171.085	-101.963	-111.267	184.682	-98.233	-38.0169	178.982	-113.681	-63.6267	167.277	-120.793	-88.111	164.79	-104.469	-16.1104	157.153	-116.588	-27.2389	146.738	-132.593	-48.1042	196.788	-80.871	7.39203	199.574	-62.9494	34.7992	215.514	-49.3965	7.25032	
